<?xml version="1.0" encoding="UTF-8" standalone="no"?>
<!DOCTYPE svg PUBLIC "-//W3C//DTD SVG 1.1//EN" "http://www.w3.org/Graphics/SVG/1.1/DTD/svg11.dtd">
<svg xmlns="http://www.w3.org/2000/svg" version="1.1" viewBox="0.00 0.00 1024.00 1024.00">
<ellipse fill="#7fd84e" cx="0.00" cy="0.00" transform="translate(572.45,340.18) rotate(-85.9)" rx="15.68" ry="15.43"/>
<path fill="#7fd84e" d="
  M 531.68 389.29
  Q 527.01 385.04 526.99 385.02
  C 520.78 378.56 510.51 375.11 501.50 374.01
  Q 494.30 373.13 486.85 375.21
  Q 467.51 380.62 458.62 398.67
  Q 447.43 421.41 457.83 444.48
  C 465.83 462.23 483.15 472.88 502.82 471.10
  C 515.30 469.97 523.21 464.15 531.48 455.16
  A 1.14 1.13 43.8 0 1 533.12 455.13
  L 547.14 469.15
  A 1.06 1.05 -52.0 0 1 547.29 470.44
  Q 546.55 471.63 543.83 474.33
  C 539.61 478.50 534.87 481.63 529.08 484.83
  Q 511.11 494.77 489.26 492.22
  Q 473.63 490.40 461.58 482.40
  Q 438.23 466.90 431.93 441.00
  Q 428.59 427.31 430.56 412.08
  Q 434.23 383.65 456.30 366.49
  Q 477.91 349.70 505.69 352.40
  C 521.24 353.92 536.62 362.09 546.82 373.53
  A 1.38 1.37 46.6 0 1 546.77 375.42
  L 532.92 389.26
  A 0.90 0.89 43.3 0 1 531.68 389.29
  Z"
/>
<path fill="#7fd84e" d="
  M 231.98 491.12
  A 0.52 0.51 0.0 0 1 231.46 491.63
  L 209.38 491.63
  A 0.59 0.59 0.0 0 1 208.79 491.04
  L 208.79 354.06
  A 0.89 0.88 0.3 0 1 209.69 353.18
  Q 228.29 353.36 262.77 353.04
  C 271.45 352.96 282.66 354.66 290.50 358.89
  C 303.12 365.68 312.21 377.39 314.76 391.82
  Q 317.78 408.88 310.68 423.40
  Q 308.52 427.82 302.81 434.20
  C 299.03 438.42 293.15 441.55 287.87 444.10
  A 0.59 0.59 0.0 0 0 287.66 444.98
  Q 295.39 455.39 302.30 466.17
  C 307.22 473.85 313.05 481.73 318.32 490.39
  A 0.81 0.81 0.0 0 1 317.62 491.62
  L 293.18 491.62
  A 0.92 0.91 -16.7 0 1 292.42 491.22
  L 264.68 449.82
  A 1.03 1.01 -16.5 0 0 263.83 449.37
  L 232.39 449.37
  A 0.42 0.41 90.0 0 0 231.98 449.79
  L 231.98 491.12
  Z
  M 231.98 375.60
  L 231.88 428.12
  A 0.29 0.29 0.0 0 0 232.17 428.41
  L 265.05 428.47
  A 27.05 25.69 0.1 0 0 292.15 402.82
  L 292.15 401.10
  A 27.05 25.69 0.1 0 0 265.15 375.37
  L 232.27 375.31
  A 0.29 0.29 0.0 0 0 231.98 375.60
  Z"
/>
<path fill="#7fd84e" d="
  M 354.65 374.69
  A 0.34 0.34 0.0 0 0 354.28 375.03
  L 354.28 410.38
  A 1.34 1.34 0.0 0 0 355.62 411.72
  L 413.19 411.72
  A 0.75 0.74 -0.0 0 1 413.94 412.46
  L 413.94 431.52
  A 1.01 1.01 0.0 0 1 412.93 432.53
  L 354.81 432.53
  A 0.39 0.38 0.0 0 0 354.42 432.91
  L 354.42 469.28
  A 0.98 0.98 0.0 0 0 355.40 470.26
  L 421.74 470.26
  A 0.51 0.51 0.0 0 1 422.25 470.77
  L 422.25 490.57
  A 1.06 1.06 0.0 0 1 421.17 491.63
  Q 388.88 491.02 350.50 491.51
  Q 336.51 491.69 332.48 491.69
  A 0.79 0.78 0.0 0 1 331.69 490.91
  L 331.69 354.01
  A 0.86 0.85 -0.0 0 1 332.55 353.16
  L 421.11 353.16
  A 0.70 0.69 0.0 0 1 421.81 353.85
  L 421.81 373.87
  A 1.00 1.00 0.0 0 1 420.87 374.87
  Q 418.04 375.04 415.00 375.04
  Q 400.34 375.09 363.25 375.08
  Q 359.36 375.08 354.65 374.69
  Z"
/>
<path fill="#7fd84e" d="
  M 623.74 493.32
  L 617.79 493.97
  A 0.87 0.76 -34.8 0 1 617.43 493.93
  Q 613.00 492.34 608.53 492.61
  A 0.42 0.42 0.0 0 1 608.09 492.19
  L 608.09 353.78
  A 0.72 0.72 0.0 0 1 608.82 353.06
  Q 629.09 353.32 656.52 353.10
  C 667.01 353.02 678.32 354.20 687.55 359.46
  Q 714.07 374.59 712.20 407.39
  C 711.63 417.31 709.20 425.46 703.01 432.90
  Q 692.55 445.50 675.84 450.09
  Q 669.68 451.79 660.00 451.77
  Q 639.49 451.73 631.70 451.65
  A 0.30 0.30 0.0 0 0 631.40 451.95
  Q 631.70 468.35 631.60 489.51
  C 631.59 490.72 631.31 491.04 631.18 491.82
  A 0.53 0.53 0.0 0 0 631.76 492.48
  L 698.23 484.13
  A 1.23 1.23 0.0 0 1 699.59 485.60
  L 699.53 485.87
  A 2.69 2.68 -88.0 0 1 697.15 488.10
  Q 681.72 489.63 678.31 490.09
  C 675.59 490.46 672.16 491.55 669.20 491.80
  C 656.91 492.83 647.94 493.41 638.44 495.47
  A 6.54 6.50 37.0 0 1 637.49 495.60
  Q 624.09 496.27 614.94 497.88
  Q 602.22 500.11 597.94 500.41
  Q 590.66 500.94 582.62 502.35
  C 572.30 504.16 558.60 504.49 549.02 506.26
  C 538.64 508.18 529.73 508.33 519.80 510.29
  C 510.00 512.23 499.79 512.59 488.43 513.92
  Q 484.61 514.37 480.41 515.35
  A 16.15 16.03 35.8 0 1 478.02 515.73
  Q 465.21 516.76 458.45 517.98
  Q 447.81 519.92 443.26 520.26
  Q 434.22 520.93 427.70 522.06
  Q 419.10 523.57 411.20 524.21
  Q 397.13 525.37 394.62 525.88
  C 382.27 528.42 366.72 528.84 354.16 530.85
  Q 353.71 530.92 332.25 533.76
  A 3.77 3.75 -59.3 0 0 331.32 534.00
  Q 326.71 535.84 320.01 536.21
  Q 309.57 536.79 299.29 538.49
  Q 289.47 540.11 283.63 540.50
  Q 273.98 541.14 267.93 542.20
  Q 259.07 543.76 251.29 544.19
  Q 244.69 544.56 228.00 547.17
  Q 221.63 548.16 206.98 549.52
  A 0.78 0.78 0.0 0 1 206.27 548.29
  L 206.66 547.75
  A 2.88 2.87 13.1 0 1 208.56 546.57
  Q 224.08 544.09 235.10 543.21
  Q 242.07 542.66 250.49 541.07
  C 257.50 539.74 267.83 539.55 276.01 538.03
  C 281.40 537.03 284.56 536.25 289.37 535.96
  Q 297.69 535.46 311.08 533.39
  Q 317.16 532.45 330.61 531.35
  C 342.24 530.40 353.80 528.30 363.54 527.32
  C 369.09 526.76 376.44 524.60 381.99 524.16
  Q 392.01 523.38 399.19 522.25
  C 411.30 520.34 423.93 519.33 434.27 517.61
  C 445.13 515.81 456.32 515.24 467.55 513.31
  Q 472.42 512.48 478.94 511.75
  C 491.01 510.40 502.32 508.43 515.32 506.99
  Q 523.91 506.04 528.63 505.21
  C 534.48 504.17 540.20 503.98 546.45 503.24
  C 557.83 501.90 563.33 500.97 574.56 499.94
  Q 584.76 499.01 597.50 496.41
  Q 601.80 495.53 608.07 495.25
  Q 615.36 494.92 623.72 494.06
  A 0.26 0.25 -7.5 0 0 623.95 493.77
  L 623.91 493.45
  A 0.15 0.15 0.0 0 0 623.74 493.32
  Z
  M 631.34 375.66
  L 631.44 429.76
  A 0.20 0.20 0.0 0 0 631.64 429.96
  L 662.06 429.91
  A 27.06 25.65 -0.1 0 0 689.07 404.21
  L 689.07 401.01
  A 27.06 25.65 -0.1 0 0 661.96 375.41
  L 631.54 375.46
  A 0.20 0.20 0.0 0 0 631.34 375.66
  Z
  M 627.7815 492.6738
  A 0.19 0.08 -17.2 0 0 627.5763 492.6536
  A 0.19 0.08 -17.2 0 0 627.4185 492.7862
  A 0.19 0.08 -17.2 0 0 627.6237 492.8064
  A 0.19 0.08 -17.2 0 0 627.7815 492.6738
  Z"
/>
<path fill="#7fd84e" d="
  M 806.99 432.63
  L 748.52 432.63
  A 0.41 0.40 0.0 0 0 748.11 433.03
  L 748.11 469.60
  A 0.68 0.68 0.0 0 0 748.79 470.28
  L 815.05 470.28
  A 0.97 0.96 0.0 0 1 816.02 471.24
  L 816.02 490.12
  A 1.44 1.44 0.0 0 1 814.58 491.56
  L 725.58 491.56
  A 0.71 0.71 0.0 0 1 724.87 490.85
  L 724.87 354.01
  A 0.76 0.76 0.0 0 1 725.63 353.25
  L 815.28 353.25
  A 0.50 0.49 90.0 0 1 815.77 353.75
  L 815.77 374.28
  A 0.76 0.76 0.0 0 1 815.02 375.04
  Q 792.22 375.22 762.00 375.18
  Q 754.60 375.17 748.17 374.71
  A 0.29 0.28 1.9 0 0 747.86 374.99
  L 747.86 410.46
  A 1.31 1.31 0.0 0 0 749.17 411.77
  L 806.74 411.77
  A 0.69 0.69 0.0 0 1 807.43 412.46
  L 807.43 432.18
  A 0.45 0.44 -90.0 0 1 806.99 432.63
  Z"
/>
<path fill="#7fd84e" d="
  M 584.21 491.55
  L 561.33 491.55
  A 0.31 0.31 0.0 0 1 561.02 491.24
  L 561.02 377.28
  A 0.31 0.31 0.0 0 1 561.19 377.00
  L 584.07 365.09
  A 0.31 0.31 0.0 0 1 584.52 365.36
  L 584.52 491.24
  A 0.31 0.31 0.0 0 1 584.21 491.55
  Z"
/>
<path fill="#7fd84e" d="
  M 503.4570 536.1780
  A 69.16 66.66 -91.9 0 1 572.3734 603.0899
  A 69.16 66.66 -91.9 0 1 508.0430 674.4220
  A 69.16 66.66 -91.9 0 1 439.1266 607.5101
  A 69.16 66.66 -91.9 0 1 503.4570 536.1780
  Z
  M 505.4546 558.0003
  A 47.37 43.46 -90.2 0 0 462.1603 605.5217
  A 47.37 43.46 -90.2 0 0 505.7854 652.7397
  A 47.37 43.46 -90.2 0 0 549.0797 605.2183
  A 47.37 43.46 -90.2 0 0 505.4546 558.0003
  Z"
/>
<path fill="#7fd84e" d="
  M 696.55 672.61
  A 0.17 0.16 80.7 0 1 696.40 672.83
  L 671.33 672.83
  A 3.30 3.29 71.8 0 1 668.67 671.48
  L 632.55 622.29
  A 0.46 0.46 0.0 0 0 631.80 622.30
  L 596.27 671.79
  A 2.85 2.84 17.8 0 1 593.96 672.97
  L 568.59 672.97
  A 0.19 0.18 -79.9 0 1 568.42 672.72
  Q 569.28 670.50 570.86 668.36
  Q 592.72 638.69 612.23 611.97
  Q 614.62 608.69 618.21 604.36
  A 0.62 0.61 -43.8 0 0 618.23 603.59
  L 569.38 538.78
  A 0.55 0.54 71.4 0 1 569.81 537.90
  L 595.81 537.90
  A 3.45 3.44 -17.7 0 1 598.62 539.35
  L 632.12 586.39
  A 0.50 0.49 45.4 0 0 632.92 586.40
  L 666.82 539.18
  A 3.06 3.05 17.9 0 1 669.33 537.90
  C 681.46 537.96 687.84 538.23 693.96 537.40
  A 0.56 0.56 0.0 0 1 694.55 538.17
  Q 693.57 540.51 691.73 542.99
  Q 673.94 567.01 657.30 589.80
  Q 653.55 594.92 647.52 602.34
  A 2.73 2.72 44.6 0 0 647.55 605.82
  Q 654.31 613.78 656.68 617.57
  Q 657.59 619.03 669.70 635.33
  Q 692.77 666.39 695.43 670.33
  Q 696.16 671.41 696.55 672.61
  Z"
/>
<path fill="#7fd84e" d="
  M 411.40 600.98
  A 0.69 0.68 30.4 0 0 411.68 602.03
  Q 425.10 607.70 430.03 621.73
  C 432.90 629.89 433.06 640.58 430.09 648.63
  C 423.51 666.41 405.78 673.06 387.51 673.20
  Q 359.36 673.41 332.98 673.12
  A 1.29 1.29 0.0 0 1 331.70 671.83
  L 331.70 538.38
  A 0.71 0.70 0.8 0 1 332.43 537.68
  Q 358.30 538.53 386.24 538.22
  Q 392.78 538.14 399.83 539.76
  C 411.43 542.41 420.44 551.80 423.60 563.14
  C 425.64 570.47 425.39 582.40 421.40 589.50
  Q 418.16 595.27 413.10 599.35
  Q 411.94 600.29 411.40 600.98
  Z
  M 354.59 559.51
  L 354.53 592.17
  A 0.31 0.31 0.0 0 0 354.84 592.48
  L 385.42 592.53
  A 16.21 14.94 0.1 0 0 401.66 577.62
  L 401.66 574.22
  A 16.21 14.94 0.1 0 0 385.48 559.25
  L 354.90 559.20
  A 0.31 0.31 0.0 0 0 354.59 559.51
  Z
  M 354.70 613.01
  L 354.64 652.27
  A 0.24 0.24 0.0 0 0 354.88 652.51
  L 388.38 652.57
  A 20.98 19.02 0.1 0 0 409.39 633.59
  L 409.39 631.89
  A 20.98 19.02 0.1 0 0 388.44 612.83
  L 354.94 612.77
  A 0.24 0.24 0.0 0 0 354.70 613.01
  Z"
/>
</svg>
